<?xml version="1.0" encoding="utf-8"?>
<!-- Generator: Adobe Illustrator 19.2.1, SVG Export Plug-In . SVG Version: 6.00 Build 0)  -->
<svg version="1.1" id="Layer_1" xmlns="http://www.w3.org/2000/svg" xmlns:xlink="http://www.w3.org/1999/xlink" x="0px" y="0px"
	 viewBox="0 0 709.2 129.5" style="enable-background:new 0 0 709.2 129.5;" xml:space="preserve">
<style type="text/css">
	.st0{enable-background:new    ;}
	.st1{fill:#55575A;}
	.st2{fill:#3EAFAF;}
	.st3{fill:#359393;}
	.st4{fill:#4DC4C4;}
</style>
<title>Linkletter Logo</title>
<g class="st0">
	<path class="st1" d="M252.4,22.3c-6.6,17.2-16.4,52.7-22.9,65.4c12.7,14.9,19.6,24.2,29.4,20.4c4.2,0.8,5.8,11.8,1.8,15.5
		c-18.2,6.2-32.2-12.1-41.5-26c-4.8,2.5-9.5,4.8-18.7,5c-9.6,0.2-19.4-2.9-19.4-13.7c0-15.5,22.4-17.9,33.6-12.1
		c6.2-18,9.2-30,13.6-42.2c-6.2,8.3-19.9,4.9-22.2,13c-1,3.4-0.5,5.9,3.1,7.3c0.6,2.4-1,7.1-3.2,8.4c-10.9,1.7-21-5.8-18.7-16.7
		c3.7-18,32.5-9.2,45.4-24.2C236,17.6,250.6,19,252.4,22.3z M202.1,91.7c4.1,0.2,6.7-2.3,8.4-4.8c-3.8-3.7-10.6-3.2-12.1-1.1
		C196.6,88.3,197.6,91.5,202.1,91.7z"/>
</g>
<g class="st0">
	<path class="st1" d="M245.5,86.3c2.6-11.4,6.4-23.9,9.7-35.3c3-2.5,16.6-1.6,18.7,2.4c-4,13.8-7.7,24.6-8.9,31.1
		c-0.7,4.6-0.1,7,1.4,7c4.2,0.1,11.4-5.6,15.5-14.4c0.7-1.7,5.8,1.8,5.2,2.9c-5.5,10.3-14.8,21.8-28.4,22.4
		C245.9,103,243.2,96.1,245.5,86.3z M259.7,33.8c1.2-5.6,5.8-10.1,12.1-10c6.2,0.1,9.5,4.6,8.5,10c-1,5.5-5.4,10-12.5,10
		C262.3,43.7,258.6,39.1,259.7,33.8z"/>
	<path class="st1" d="M334.6,66.2c-1.2,4.9-3.8,12.1-5,17.6c-1,4.4-0.4,7.7,1.8,7.7c4.4,0,10.4-6.7,14.2-14.4
		c0.8-1.7,5.8,1.7,5.2,2.9c-4.8,9.1-14.2,22.2-27.7,22.6c-12.4,0.4-15.1-6.5-12.7-16c1-3.7,4-16,4.4-18.1c0.7-3.2,0.7-5.3-2.6-4.8
		c-2.5,0.4-5.4,2.2-8.5,4.7c-3.5,11.3-5.5,21.1-8.3,32.2c-2,2.9-17.9,3.5-19.3-0.7c3.6-15.8,8.8-32.9,13.7-48.7
		c3.2-2.2,15-2.2,18,2.2c-0.7,1.9-1.2,4.1-1.9,6c4.3-3.4,12-9.1,19.2-9C334.2,50.3,336.8,56.7,334.6,66.2z"/>
	<path class="st1" d="M412.5,80c-8.3,15.8-18.8,22.6-28.7,22.7c-10.2,0.1-17.4-6.2-15.2-25.4c12.7-3.8,16.6-13.1,10-14.2
		c-4.6-0.7-10.8,4.6-12.4,10.3c-2.5,9.1-5.3,18.1-7.1,27.2c-1.7,2.6-19.7,4-19.9-0.8c6.7-25.3,17.4-62.8,22.7-79.3
		c2.3-2.6,18.2-1.6,18.8,2.8c-2,6.6-6.7,21.8-10.3,35.3c8.3-7.4,20.3-10.6,26.5-6.1c8.9,6.4,1.9,24.2-13.3,27.1
		c0,8.2,1.8,12.1,6.2,12.2c7,0.2,11.8-3.6,17.6-14.8C408.2,75.5,413.1,78.8,412.5,80z"/>
	<path class="st1" d="M458.7,41.3c-3.1,15.6-15,27.5-33.2,32.3c-2.6,11.4-0.4,18,7.8,18.2c5.5,0.1,14.3-2,21-14.9
		c0.7-1.4,5.5,1.9,5,2.9c-7.1,13.3-15.7,24.2-33.6,22.6c-18.5-1.7-20.6-18-15.8-41c3.6-17.2,11.4-33.6,22.7-40
		C445.8,14,462.6,22.3,458.7,41.3z M434.1,43.7c-2,5.6-4.9,13.6-6.5,19.3c5.8-2.6,11.3-10.9,13.9-17.5c2.8-7.2,3.6-14.4,0.6-14.4
		C439.7,31.1,436.8,36.8,434.1,43.7z"/>
	<path class="st1" d="M502.2,71.8c-4.1,8.5-15.1,12.7-28.7,10.7c0.6,6.4,5.5,9.1,14.2,9.2c6.8,0.1,17.5-2.8,23.8-14.6
		c0.8-1.7,5.9,1.7,5.3,2.8c-9.4,17-20.9,23-35.5,22.9c-20.8-0.1-28.3-11.8-27.1-24.5c1.6-16.7,15-28,32.4-27.7
		C502.1,50.8,507.2,62.3,502.2,71.8z M474.1,74.8c7,0.2,11.2-4.4,12.2-8.3c0.7-2.4,0.2-4.3-1.6-4.6C480.5,61.4,475.9,67,474.1,74.8z
		"/>
	<path class="st1" d="M515.6,57.9h-3c-2.5-1.3-0.7-10.1,1.8-10.6h4.1c3.1-10,6.7-21.7,8.5-26.8c2.4-2.9,17.9-1.9,19,2.8
		c-2.6,8.2-4.8,15.5-7.2,24h7.4c2.9,2.4,1.1,9.5-1.1,10.6h-9.2c-1.7,5.8-3.5,11.5-4.7,16.4c-2.4,10-3,17.2,1.9,17.5
		c4.2,0.2,12.1-1.1,19-14.8c0.8-1.7,5.8,1.7,5.2,2.9c-6.8,14.2-15,22.6-27.4,22.6C506.5,102.5,509.5,81.9,515.6,57.9z"/>
	<path class="st1" d="M556.2,57.9h-3c-2.5-1.3-0.7-10.1,1.8-10.6h4.1c3.1-10,6.7-21.7,8.5-26.8c2.4-2.9,17.9-1.9,19,2.8
		c-2.6,8.2-4.8,15.5-7.2,24h7.4c2.9,2.4,1.1,9.5-1.1,10.6h-9.2c-1.7,5.8-3.5,11.5-4.7,16.4c-2.4,10-3,17.2,1.9,17.5
		c4.2,0.2,12.1-1.1,19-14.8c0.8-1.7,5.8,1.7,5.2,2.9c-6.8,14.2-15,22.6-27.4,22.6C547.1,102.5,550.1,81.9,556.2,57.9z"/>
	<path class="st1" d="M640.7,71.8c-4.1,8.5-15.1,12.7-28.7,10.7c0.6,6.4,5.5,9.1,14.2,9.2c6.8,0.1,17.5-2.8,23.8-14.6
		c0.8-1.7,5.9,1.7,5.3,2.8c-9.4,17-20.9,23-35.5,22.9c-20.8-0.1-28.3-11.8-27.1-24.5c1.6-16.7,15-28,32.4-27.7
		C640.5,50.8,645.7,62.3,640.7,71.8z M612.6,74.8c7,0.2,11.2-4.4,12.2-8.3c0.7-2.4,0.2-4.3-1.6-4.6C618.9,61.4,614.4,67,612.6,74.8z
		"/>
	<path class="st1" d="M648.3,80.2c4.3-7.9,7.8-14.5,10.8-24.8c-11.3-17.6,17.6-26.2,12.6-7.2c8,7.3,21.5,13.9,13.9,23.9
		c-3.8,5-7.1,10.2-8,14.3c-0.7,3,0.1,5.3,3.8,5.2c4.6-0.1,13.1-3,19.3-14.5c0.8-1.4,5.6,1.8,5,2.9c-5.5,11.2-15,22.3-31.7,22.7
		c-11,0.2-16.3-4.8-16.2-12.7c0.1-7.3,5.4-15.5,9.6-22.3c2.4-4-1.2-6.8-3.4-8.9c-2.2,7.7-6.2,16.7-10.7,24.4
		C652.4,84.9,647.3,82.3,648.3,80.2z"/>
</g>
<g>
	<polyline class="st2" points="134.8,8.6 169.9,43.8 123.3,90.4 	"/>
	<polyline class="st3" points="123.3,90.4 93.3,50.2 134.8,8.6 	"/>
	<polygon class="st4" points="123.3,90.4 88.2,125.5 6.2,43.5 38.5,40.6 41.3,8.4 	"/>
</g>
</svg>
