<?xml version="1.0" encoding="utf-8"?>
<!-- Generator: Adobe Illustrator 19.2.1, SVG Export Plug-In . SVG Version: 6.00 Build 0)  -->
<svg version="1.1" id="Layer_1" xmlns="http://www.w3.org/2000/svg" xmlns:xlink="http://www.w3.org/1999/xlink" x="0px" y="0px"
	 viewBox="0 0 600 350" style="enable-background:new 0 0 600 350;" xml:space="preserve">
<style type="text/css">
	.st0{enable-background:new    ;}
	.st1{fill:#55575A;}
	.st2{fill:#3EAFAF;}
	.st3{fill:#359393;}
	.st4{fill:#4DC4C4;}
</style>
<title>linkletter_big</title>
<g>
	<g class="st0">
		<path class="st1" d="M94,227.5c-7.3,18.9-18.1,57.9-25.2,71.9c14,16.4,21.5,26.7,32.3,22.4c4.6,0.9,6.3,12.9,2,17
			c-20.1,6.9-35.4-13.3-45.7-28.6c-5.3,2.8-10.4,5.3-20.6,5.5c-10.6,0.3-21.4-3.2-21.4-15c0-17,24.7-19.7,37-13.3
			c6.9-19.8,10.2-33,14.9-46.5c-6.9,9.1-21.9,5.4-24.4,14.3c-1.1,3.7-0.5,6.5,3.4,8c0.7,2.6-1.1,7.8-3.6,9.2
			c-12,1.8-23.1-6.3-20.6-18.3c4.1-19.8,35.8-10.2,49.9-26.7C76.1,222.4,92.1,224,94,227.5z M38.8,303.9c4.5,0.3,7.4-2.5,9.2-5.3
			c-4.2-4.1-11.6-3.6-13.3-1.2C32.7,300.1,33.9,303.7,38.8,303.9z"/>
	</g>
	<g class="st0">
		<path class="st1" d="M86.5,298c2.9-12.5,7-26.3,10.7-38.8c3.3-2.8,18.2-1.7,20.6,2.6c-4.4,15.2-8.4,27.1-9.8,34.2
			c-0.8,5-0.1,7.7,1.6,7.7c4.6,0.1,12.5-6.2,17-15.8c0.8-1.8,6.3,2,5.7,3.2c-6.1,11.3-16.2,24-31.3,24.7
			C86.9,316.3,84,308.7,86.5,298z M102.1,240.2c1.3-6.2,6.3-11.1,13.3-11c6.9,0.1,10.4,5,9.4,11c-1.1,6.1-5.9,11-13.7,11
			C105,251.2,100.9,246,102.1,240.2z"/>
		<path class="st1" d="M184.4,275.8c-1.3,5.4-4.2,13.3-5.5,19.4c-1.1,4.9-0.4,8.4,2,8.4c4.9,0,11.5-7.4,15.6-15.8
			c0.9-1.8,6.3,1.8,5.7,3.2c-5.3,10-15.6,24.4-30.5,24.8c-13.6,0.4-16.6-7.1-14-17.6c1.1-4.1,4.4-17.6,4.9-19.9
			c0.8-3.6,0.8-5.8-2.9-5.3c-2.8,0.4-5.9,2.4-9.4,5.1c-3.8,12.4-6.1,23.2-9.1,35.4c-2.2,3.2-19.7,3.8-21.2-0.8
			c4-17.4,9.6-36.2,15-53.6c3.6-2.4,16.5-2.4,19.8,2.4c-0.8,2.1-1.3,4.5-2.1,6.6c4.8-3.7,13.2-10,21.1-9.9
			C184,258.4,186.9,265.4,184.4,275.8z"/>
		<path class="st1" d="M270.2,291c-9.1,17.4-20.7,24.8-31.5,24.9c-11.2,0.1-19.1-6.9-16.8-28c14-4.2,18.2-14.4,11-15.6
			c-5-0.8-11.9,5-13.6,11.3c-2.8,10-5.8,19.9-7.8,30c-1.8,2.9-21.6,4.4-21.9-0.9c7.4-27.8,19.1-69,24.9-87.2
			c2.5-2.9,20.1-1.7,20.7,3c-2.2,7.3-7.4,24-11.4,38.8c9.1-8.2,22.3-11.6,29.2-6.7c9.8,7,2.1,26.7-14.6,29.8c0,9,2,13.3,6.9,13.5
			c7.7,0.3,12.9-4,19.4-16.2C265.5,286.1,270.9,289.7,270.2,291z"/>
		<path class="st1" d="M321,248.5c-3.4,17.2-16.5,30.2-36.6,35.5c-2.9,12.5-0.4,19.8,8.6,20.1c6.1,0.1,15.7-2.2,23.1-16.4
			c0.8-1.6,6.1,2.1,5.5,3.2c-7.8,14.6-17.3,26.7-37,24.8c-20.3-1.8-22.7-19.8-17.4-45.1c4-18.9,12.5-37,24.9-43.9
			C306.8,218.4,325.2,227.5,321,248.5z M294,251.2c-2.2,6.2-5.4,14.9-7.1,21.2c6.3-2.9,12.4-12,15.3-19.3c3-7.9,4-15.8,0.7-15.8
			C300,237.3,296.9,243.5,294,251.2z"/>
		<path class="st1" d="M368.8,282c-4.5,9.4-16.6,14-31.5,11.7c0.7,7,6.1,10,15.6,10.2c7.5,0.1,19.3-3,26.1-16.1
			c0.9-1.8,6.5,1.8,5.8,3c-10.3,18.7-23,25.3-39.1,25.2c-22.8-0.1-31.1-12.9-29.8-26.9c1.7-18.3,16.5-30.8,35.6-30.5
			C368.7,258.9,374.3,271.6,368.8,282z M337.9,285.3c7.7,0.3,12.3-4.9,13.5-9.1c0.8-2.6,0.3-4.8-1.7-5
			C344.9,270.6,339.9,276.8,337.9,285.3z"/>
		<path class="st1" d="M383.6,266.7h-3.3c-2.8-1.5-0.8-11.1,2-11.6h4.5c3.4-11,7.4-23.9,9.4-29.4c2.6-3.2,19.7-2.1,20.9,3
			c-2.9,9-5.3,17-7.9,26.4h8.2c3.2,2.6,1.2,10.4-1.2,11.6h-10.2c-1.8,6.3-3.8,12.7-5.1,18.1c-2.6,11-3.3,18.9,2.1,19.3
			c4.6,0.3,13.3-1.2,20.9-16.2c0.9-1.8,6.3,1.8,5.7,3.2c-7.5,15.6-16.5,24.8-30.1,24.8C373.5,315.8,376.8,293.1,383.6,266.7z"/>
		<path class="st1" d="M428.2,266.7h-3.3c-2.8-1.5-0.8-11.1,2-11.6h4.5c3.4-11,7.4-23.9,9.4-29.4c2.6-3.2,19.7-2.1,20.9,3
			c-2.9,9-5.3,17-7.9,26.4h8.2c3.2,2.6,1.2,10.4-1.2,11.6h-10.2c-1.8,6.3-3.8,12.7-5.1,18.1c-2.6,11-3.3,18.9,2.1,19.3
			c4.6,0.3,13.3-1.2,20.9-16.2c0.9-1.8,6.3,1.8,5.7,3.2c-7.5,15.6-16.5,24.8-30.1,24.8C418.1,315.8,421.4,293.1,428.2,266.7z"/>
		<path class="st1" d="M521.1,282c-4.5,9.4-16.6,14-31.5,11.7c0.7,7,6.1,10,15.6,10.2c7.5,0.1,19.3-3,26.1-16.1
			c0.9-1.8,6.5,1.8,5.8,3c-10.3,18.7-23,25.3-39.1,25.2c-22.8-0.1-31.1-12.9-29.8-26.9c1.7-18.3,16.5-30.8,35.6-30.5
			C521,258.9,526.6,271.6,521.1,282z M490.2,285.3c7.7,0.3,12.3-4.9,13.5-9.1c0.8-2.6,0.3-4.8-1.7-5
			C497.2,270.6,492.2,276.8,490.2,285.3z"/>
		<path class="st1" d="M529.5,291.3c4.8-8.7,8.6-16,11.9-27.3c-12.4-19.4,19.4-28.8,13.9-7.9c8.8,8.1,23.6,15.3,15.3,26.3
			c-4.2,5.5-7.8,11.2-8.8,15.7c-0.8,3.3,0.1,5.8,4.2,5.7c5-0.1,14.4-3.3,21.2-16c0.9-1.6,6.2,2,5.5,3.2
			c-6.1,12.3-16.5,24.5-34.8,24.9c-12.1,0.3-17.9-5.3-17.8-14c0.1-8,5.9-17,10.6-24.5c2.6-4.4-1.3-7.5-3.7-9.8
			c-2.4,8.4-6.9,18.3-11.7,26.8C534,296.4,528.3,293.5,529.5,291.3z"/>
	</g>
	<g>
		<polyline class="st2" points="351.9,13 404.1,65.3 334.8,134.5 		"/>
		<polyline class="st3" points="334.8,134.5 290.1,74.8 351.9,13 		"/>
		<polygon class="st4" points="334.8,134.5 282.6,186.8 160.7,64.9 208.7,60.6 212.9,12.6 		"/>
	</g>
</g>
</svg>
